<svg width="52" height="56" viewBox="0 0 52 56" fill="none" xmlns="http://www.w3.org/2000/svg">
<path d="M50.2667 26.866H39.0583C38.9396 26.866 38.8222 26.8416 38.7133 26.7944C38.6044 26.7472 38.5064 26.6781 38.4253 26.5914C38.3442 26.5047 38.2818 26.4023 38.2419 26.2906C38.2021 26.1788 38.1856 26.06 38.1935 25.9416C38.213 25.7188 38.316 25.5116 38.4819 25.3615C38.6478 25.2115 38.8643 25.1297 39.088 25.1327H49.4C52.8667 25.1327 52 22.5326 51.0406 21.4263C50.8896 21.2524 51.5328 21.8945 40.0195 10.2107C39.6471 9.60432 39.0851 9.13774 38.4205 8.8833C38.4205 8.8833 38.3874 13.8058 36.6839 15.4904C33.4051 18.7331 30.3873 20.3771 27.7139 20.3771C24.8117 20.3771 22.0079 18.3678 21.5661 14.4416C1.22948 22.1743 2.26417 21.7735 2.16916 21.8285C1.51049 22.2094 0.963441 22.7567 0.582759 23.4156C0.202078 24.0744 0.00112032 24.8217 0 25.5826V31.1993C0.000708408 31.881 0.268779 32.5352 0.746613 33.0213C1.22445 33.5075 1.87392 33.7868 2.55547 33.7993C4.00974 33.8235 5.2 32.5948 5.2 31.1402V28.5993C5.20013 28.4805 5.22465 28.3631 5.27204 28.2541C5.31942 28.1452 5.38867 28.0472 5.47548 27.9661C5.56229 27.8851 5.66483 27.8227 5.77673 27.7829C5.88864 27.743 6.00752 27.7266 6.12603 27.7346C6.34862 27.7547 6.55541 27.8581 6.70508 28.0241C6.85474 28.1901 6.93626 28.4064 6.93333 28.6299V32.8635C6.93333 34.8027 8.52063 36.4318 10.46 36.3988C11.3686 36.382 12.2343 36.0096 12.8712 35.3615C13.5082 34.7134 13.8656 33.8414 13.8667 32.9327V27.7327C13.8668 27.6139 13.8913 27.4964 13.9387 27.3875C13.9861 27.2786 14.0553 27.1805 14.1421 27.0995C14.229 27.0184 14.3315 26.956 14.4434 26.9162C14.5553 26.8764 14.6742 26.8599 14.7927 26.8679C15.0153 26.8881 15.2221 26.9914 15.3717 27.1574C15.5214 27.3234 15.6029 27.5397 15.6 27.7632V31.1993C15.6007 31.881 15.8688 32.5352 16.3466 33.0213C16.8244 33.5075 17.4739 33.7868 18.1555 33.7993C19.6097 33.8238 20.8 32.5951 20.8 31.1405V30.3326C20.8002 30.0977 20.8482 29.8653 20.9409 29.6495C21.0336 29.4337 21.1692 29.2389 21.3395 29.0771C21.5097 28.9152 21.711 28.7896 21.9313 28.7078C22.1515 28.6261 22.386 28.5899 22.6206 28.6015C23.5518 28.6474 24.2667 29.4508 24.2667 30.383V32.884C24.2634 33.2254 24.3274 33.5642 24.4551 33.8809C24.5827 34.1976 24.7715 34.486 25.0106 34.7298C25.2497 34.9735 25.5345 35.1678 25.8487 35.3014C26.1629 35.4351 26.5004 35.5056 26.8418 35.5089C27.1832 35.5121 27.522 35.4481 27.8387 35.3205C28.1554 35.1928 28.4438 35.0041 28.6876 34.7649C28.9313 34.5258 29.1256 34.241 29.2592 33.9268C29.3929 33.6126 29.4634 33.2752 29.4667 32.9337V31.1981C29.4667 30.7615 29.7976 30.3322 30.3857 30.3322C30.4926 30.3321 30.5985 30.353 30.6973 30.3938C30.7961 30.4347 30.8859 30.4946 30.9615 30.5701C31.0371 30.6457 31.0971 30.7354 31.1381 30.8342C31.179 30.9329 31.2 31.0388 31.2 31.1457C31.1914 31.4983 31.2535 31.8491 31.3826 32.1773C31.5118 32.5055 31.7054 32.8045 31.952 33.0566C33.5298 34.6219 36.401 33.5907 36.4008 31.2506L36.4069 31.1957C36.4335 30.9584 36.5466 30.7392 36.7245 30.58C36.9025 30.4208 37.1329 30.3327 37.3716 30.3326H44.0938C44.3518 30.3327 44.5993 30.4352 44.7817 30.6176C44.9641 30.8001 45.0666 31.0475 45.0667 31.3055V32.066C45.0676 32.9748 45.425 33.847 46.062 34.4952C46.699 35.1434 47.5649 35.5159 48.4735 35.5326C50.4127 35.5657 52 33.937 52 31.9975V28.5993C52 28.1396 51.8174 27.6987 51.4923 27.3737C51.1673 27.0486 50.7264 26.866 50.2667 26.866ZM35.5916 26.866H30.3916C30.1618 26.866 29.9413 26.7747 29.7788 26.6121C29.6163 26.4496 29.525 26.2292 29.525 25.9993C29.525 25.7695 29.6163 25.549 29.7788 25.3865C29.9413 25.224 30.1618 25.1327 30.3916 25.1327H35.5916C35.8215 25.1327 36.0419 25.224 36.2044 25.3865C36.367 25.549 36.4583 25.7695 36.4583 25.9993C36.4583 26.2292 36.367 26.4496 36.2044 26.6121C36.0419 26.7747 35.8215 26.866 35.5916 26.866Z" fill="white"/>
<path d="M38.8483 5.19715L36.3258 3.97168L36.7319 1.19694C36.756 1.0307 36.7312 0.861055 36.6607 0.708607C36.5902 0.556158 36.4769 0.427466 36.3347 0.338162C36.1924 0.248859 36.0273 0.202785 35.8593 0.205539C35.6914 0.208292 35.5279 0.259753 35.3886 0.353673L33.0662 1.92516L30.8663 0.186189C30.7385 0.0854449 30.585 0.0226864 30.4232 0.00508734C30.2614 -0.0125118 30.098 0.0157586 29.9515 0.086667C29.8051 0.157575 29.6815 0.268261 29.595 0.406072C29.5085 0.543882 29.4625 0.703258 29.4622 0.865981V2.44765L37.5267 7.38949L38.844 6.75823C38.9908 6.68758 39.1147 6.57702 39.2016 6.43922C39.2884 6.30142 39.3347 6.14194 39.3352 5.97905C39.3356 5.81615 39.2902 5.65642 39.2041 5.51814C39.118 5.37985 38.9947 5.26861 38.8483 5.19715Z" fill="white"/>
<path d="M50.0655 36.9193C47.9963 37.4184 43.7856 37.6235 43.367 32.8654C43.3494 32.6481 43.2509 32.4455 43.0909 32.2974C42.931 32.1494 42.7213 32.0668 42.5034 32.066H38.7233C38.5425 32.0662 38.3664 32.1231 38.2196 32.2286C38.0728 32.3342 37.9628 32.4831 37.905 32.6544C37.0463 35.1795 33.9665 36.2983 31.6523 34.9865C31.4584 34.8831 31.2325 34.8571 31.0201 34.9137C30.8078 34.9704 30.6248 35.1054 30.5081 35.2916C30.1212 35.9048 29.5829 36.408 28.9452 36.7529C28.3074 37.0979 27.5916 37.2728 26.8667 37.261C25.3167 37.261 24.3209 36.5964 23.6817 35.7425C22.8993 34.6979 21.4722 34.3436 20.339 34.9909C19.6859 35.3574 18.9473 35.5442 18.1985 35.5325C17.5971 35.5325 16.8227 35.3306 16.1564 34.9901C15.9535 34.8891 15.719 34.8719 15.5034 34.9422C15.2879 35.0125 15.1086 35.1646 15.0042 35.3658C13.0867 39.1701 7.70967 38.9387 5.82424 35.3733C5.76883 35.2708 5.69336 35.1805 5.60231 35.1078C5.51125 35.0351 5.40649 34.9815 5.29427 34.9501C5.18205 34.9188 5.06467 34.9104 4.94912 34.9254C4.83357 34.9404 4.72223 34.9785 4.62174 35.0374C3.89666 35.4609 2.90649 35.8259 1.92174 35.6277C1.79512 35.6004 1.664 35.6016 1.53791 35.6313C1.41183 35.6611 1.29396 35.7185 1.19289 35.7996C1.09182 35.8806 1.01009 35.9831 0.953661 36.0997C0.897231 36.2164 0.867519 36.3441 0.866687 36.4736V49.812C0.866687 52.6601 2.57196 55.466 5.20002 55.466H46.8C49.477 55.466 51.1334 52.5907 51.1334 49.812V37.7617C51.1335 37.6308 51.1039 37.5015 51.0468 37.3837C50.9897 37.2658 50.9067 37.1624 50.8039 37.0813C50.7011 37.0002 50.5812 36.9435 50.4533 36.9155C50.3254 36.8874 50.1928 36.8887 50.0655 36.9193ZM47.6667 49.8326C47.6667 50.4073 47.4384 50.9584 47.0321 51.3647C46.6258 51.771 46.0747 51.9993 45.5 51.9993H6.50002C5.92538 51.9993 5.37428 51.771 4.96796 51.3647C4.56163 50.9584 4.33335 50.4073 4.33335 49.8326C4.33335 49.258 4.56163 48.7069 4.96796 48.3006C5.37428 47.8942 5.92538 47.666 6.50002 47.666H45.5C46.0747 47.666 46.6258 47.8942 47.0321 48.3006C47.4384 48.7069 47.6667 49.258 47.6667 49.8326ZM47.6667 43.766C47.6667 44.3406 47.4384 44.8917 47.0321 45.298C46.6258 45.7044 46.0747 45.9326 45.5 45.9326H6.50002C5.92538 45.9326 5.37428 45.7044 4.96796 45.298C4.56163 44.8917 4.33335 44.3406 4.33335 43.766C4.33335 43.1913 4.56163 42.6402 4.96796 42.2339C5.37428 41.8276 5.92538 41.5993 6.50002 41.5993H45.5C46.0747 41.5993 46.6258 41.8276 47.0321 42.2339C47.4384 42.6402 47.6667 43.1913 47.6667 43.766Z" fill="white"/>
<path d="M34.553 6.84002L31.4808 4.91168C28.831 3.24801 25.3868 4.44585 24.4033 7.31376C22.5508 12.7188 22.8994 16.41 25.413 17.9879C28.6439 20.0163 32.755 16.9386 35.4651 14.2586C37.6201 12.1269 37.2042 8.50434 34.553 6.84002ZM28.4671 11.7268C28.3759 11.872 28.2438 11.9869 28.0874 12.0569C27.9309 12.127 27.7572 12.1491 27.5882 12.1205C27.4192 12.0918 27.2625 12.0137 27.1379 11.8959C27.0133 11.7782 26.9264 11.6262 26.8882 11.4591C26.85 11.292 26.8622 11.1173 26.9233 10.9572C26.9844 10.797 27.0916 10.6586 27.2314 10.5593C27.3711 10.4601 27.5372 10.4045 27.7085 10.3997C27.8799 10.3948 28.0488 10.4409 28.194 10.532C28.3886 10.6542 28.5268 10.8488 28.578 11.0729C28.6292 11.2969 28.5893 11.5322 28.4671 11.7268ZM30.2004 14.3268C30.1093 14.472 29.9771 14.5869 29.8207 14.6569C29.6643 14.727 29.4905 14.7491 29.3215 14.7205C29.1525 14.6918 28.9958 14.6137 28.8712 14.4959C28.7466 14.3782 28.6598 14.2262 28.6216 14.0591C28.5834 13.892 28.5956 13.7173 28.6567 13.5572C28.7177 13.397 28.8249 13.2586 28.9647 13.1593C29.1045 13.0601 29.2705 13.0045 29.4419 12.9997C29.6132 12.9948 29.7822 13.0409 29.9273 13.132C30.1219 13.2543 30.26 13.4488 30.3112 13.6728C30.3624 13.8969 30.3226 14.1322 30.2004 14.3268ZM30.2004 9.12683C30.1093 9.272 29.9771 9.38688 29.8207 9.45694C29.6643 9.52701 29.4905 9.54911 29.3215 9.52045C29.1525 9.49179 28.9958 9.41367 28.8712 9.29595C28.7466 9.17823 28.6598 9.02621 28.6216 8.8591C28.5834 8.692 28.5956 8.51732 28.6567 8.35716C28.7177 8.197 28.8249 8.05855 28.9647 7.95932C29.1045 7.86008 29.2705 7.80452 29.4419 7.79966C29.6132 7.7948 29.7822 7.84086 29.9273 7.93202C30.0237 7.99255 30.1072 8.07147 30.1731 8.16428C30.239 8.25709 30.286 8.36197 30.3113 8.47293C30.3367 8.58389 30.3399 8.69876 30.3209 8.81097C30.3018 8.92319 30.261 9.03044 30.2004 9.12683ZM31.9338 11.7268C31.8426 11.872 31.7105 11.9869 31.554 12.0569C31.3976 12.127 31.2239 12.1491 31.0549 12.1205C30.8859 12.0918 30.7292 12.0137 30.6046 11.8959C30.48 11.7782 30.3931 11.6262 30.3549 11.4591C30.3167 11.292 30.3289 11.1173 30.39 10.9572C30.4511 10.797 30.5583 10.6586 30.698 10.5593C30.8378 10.4601 31.0039 10.4045 31.1752 10.3997C31.3465 10.3948 31.5155 10.4409 31.6607 10.532C31.7571 10.5925 31.8406 10.6714 31.9065 10.7642C31.9724 10.857 32.0194 10.9619 32.0448 11.0729C32.0701 11.1838 32.0734 11.2987 32.0544 11.4109C32.0353 11.5232 31.9943 11.6304 31.9338 11.7268Z" fill="white"/>
</svg>
