<svg width="41" height="45" viewBox="0 0 41 45" fill="none" xmlns="http://www.w3.org/2000/svg">
<path d="M40.613 0.348937C40.4161 0.126302 40.1357 0 39.8445 0H1.02477C0.72721 0 0.446776 0.126302 0.256253 0.348937C0.0614474 0.569431 -0.0284625 0.862709 0.00792963 1.15599L5.63373 44.1095C5.7001 44.6168 6.13466 45 6.65057 45H34.2209C34.7346 45 35.1692 44.6168 35.2356 44.1095L40.8549 1.15599C40.8956 0.862709 40.8057 0.569431 40.613 0.348937ZM32.8786 34.0909H7.98852L2.18932 2.04438H38.6778L32.8786 34.0909Z" fill="white"/>
<path d="M8.84055 33.0677H27.4241L31.4337 10.9091H4.83098L8.84055 33.0677Z" fill="white"/>
<path d="M32.0224 33.0677L36.0341 10.9091H33.9876L29.978 33.0677H32.0224Z" fill="white"/>
</svg>
