<svg width="53" height="53" viewBox="0 0 53 53" fill="none" xmlns="http://www.w3.org/2000/svg">
<path d="M26.3287 19.1485C22.3697 19.1485 19.1488 22.3686 19.1488 26.3266C19.1488 30.2846 22.3696 33.5047 26.3287 33.5047C30.2878 33.5047 33.5087 30.2846 33.5087 26.3266C33.5087 22.3686 30.2877 19.1485 26.3287 19.1485ZM26.3287 31.4343C23.5116 31.4343 21.2197 29.143 21.2197 26.3266C21.2197 23.5102 23.5116 21.2189 26.3287 21.2189C29.1459 21.2189 31.4378 23.5102 31.4378 26.3266C31.4378 29.143 29.1459 31.4343 26.3287 31.4343Z" fill="white"/>
<path d="M28.2281 23.4802C27.9558 23.4802 27.6887 23.591 27.4962 23.7835C27.3036 23.9761 27.1927 24.2431 27.1927 24.5154C27.1927 24.7876 27.3035 25.0547 27.4962 25.2472C27.6887 25.4398 27.9558 25.5505 28.2281 25.5505C28.5004 25.5505 28.7676 25.4398 28.9602 25.2472C29.1528 25.0547 29.2635 24.7876 29.2635 24.5154C29.2635 24.2431 29.1529 23.9761 28.9602 23.7835C28.7675 23.591 28.5004 23.4802 28.2281 23.4802Z" fill="white"/>
<path d="M23.9765 24.4876C23.7031 24.4876 23.436 24.5983 23.2444 24.7909C23.0508 24.9845 22.9401 25.2505 22.9401 25.5238C22.9401 25.796 23.0508 26.0621 23.2444 26.2556C23.4361 26.4482 23.7032 26.5589 23.9765 26.5589C24.2488 26.5589 24.5149 26.4482 24.7085 26.2556C24.901 26.0621 25.0119 25.795 25.0119 25.5238C25.0119 25.2515 24.9011 24.9845 24.7085 24.7909C24.5149 24.5983 24.2488 24.4876 23.9765 24.4876Z" fill="white"/>
<path d="M26.9752 27.6656C26.7018 27.6656 26.4357 27.7764 26.2432 27.9689C26.0495 28.1615 25.9398 28.4285 25.9398 28.7008C25.9398 28.973 26.0495 29.2401 26.2432 29.4326C26.4357 29.6252 26.702 29.7359 26.9752 29.7359C27.2475 29.7359 27.5136 29.6252 27.7072 29.4326C27.8997 29.2401 28.0106 28.973 28.0106 28.7008C28.0106 28.4285 27.8998 28.1615 27.7072 27.9689C27.5136 27.7763 27.2475 27.6656 26.9752 27.6656Z" fill="white"/>
<path d="M42.0558 28.5901C41.7834 28.5901 41.5163 28.6998 41.3238 28.8923C41.1312 29.0859 41.0203 29.353 41.0203 29.6252C41.0203 29.8975 41.1311 30.1645 41.3238 30.3571C41.5163 30.5496 41.7834 30.6604 42.0558 30.6604C42.3281 30.6604 42.5952 30.5496 42.7878 30.3571C42.9804 30.1645 43.0912 29.8975 43.0912 29.6252C43.0912 29.353 42.9805 29.0859 42.7878 28.8923C42.5952 28.6998 42.3281 28.5901 42.0558 28.5901Z" fill="white"/>
<path d="M44.0191 32.8022C44.0191 33.0745 44.1298 33.3416 44.3225 33.5341C44.515 33.7266 44.7812 33.8374 45.0545 33.8374C45.3268 33.8374 45.5939 33.7266 45.7865 33.5341C45.9791 33.3416 46.0899 33.0755 46.0899 32.8022C46.0899 32.53 45.9792 32.2629 45.7865 32.0704C45.5939 31.8778 45.3268 31.7671 45.0545 31.7671C44.7822 31.7671 44.515 31.8778 44.3225 32.0704C44.1298 32.2629 44.0191 32.53 44.0191 32.8022Z" fill="white"/>
<path d="M38.5672 20.6961L40.5001 18.7637C41.1931 18.0708 41.1931 16.9436 40.5001 16.2508L38.5672 14.3183C37.8742 13.6256 36.7466 13.6255 36.0536 14.3183L34.1208 16.2506C33.785 16.5862 33.6002 17.0325 33.6002 17.5071C33.6002 17.9819 33.785 18.4281 34.1207 18.7636L36.0536 20.6961C36.3893 21.0317 36.8357 21.2165 37.3105 21.2165C37.7852 21.2165 38.2315 21.0317 38.5672 20.6961ZM35.7928 17.5072L37.3105 15.9899L38.8281 17.5072L37.3105 19.0246L35.7928 17.5072Z" fill="white"/>
<path d="M45.6579 41.2254H42.9905C42.0204 41.2254 41.2312 42.0145 41.2312 42.9843V45.651C41.2312 46.6209 42.0204 47.4099 42.9905 47.4099H45.6579C46.628 47.4099 47.4173 46.6209 47.4173 45.651V42.9843C47.4173 42.0145 46.628 41.2254 45.6579 41.2254ZM45.3463 45.3394H43.3021V43.2957H45.3463V45.3394Z" fill="white"/>
<path d="M34.6356 33.5963C34.3633 33.5963 34.0961 33.707 33.9037 33.8996C33.7111 34.0921 33.6002 34.3581 33.6002 34.6314C33.6002 34.9037 33.711 35.1707 33.9037 35.3633C34.0961 35.5558 34.3633 35.6666 34.6356 35.6666C34.908 35.6666 35.1751 35.5558 35.3676 35.3633C35.5602 35.1707 35.671 34.9037 35.671 34.6314C35.671 34.3592 35.5603 34.0921 35.3676 33.8996C35.1751 33.7069 34.908 33.5963 34.6356 33.5963Z" fill="white"/>
<path d="M20.8763 35.5362C20.604 35.5362 20.3368 35.646 20.1443 35.8395C19.9518 36.0321 19.8409 36.2991 19.8409 36.5714C19.8409 36.8436 19.9517 37.1107 20.1443 37.3032C20.3368 37.4958 20.604 37.6065 20.8763 37.6065C21.1486 37.6065 21.4157 37.4958 21.6083 37.3032C21.8009 37.1107 21.9117 36.8436 21.9117 36.5714C21.9117 36.2991 21.801 36.0321 21.6083 35.8395C21.4157 35.6459 21.1486 35.5362 20.8763 35.5362Z" fill="white"/>
<path d="M8.5293 24.572C8.00245 24.3492 7.39495 24.5956 7.17232 25.1222C5.41202 29.2829 4.51955 33.7018 4.51955 38.256C4.51955 38.8277 4.98324 39.2912 5.55502 39.2912C6.12681 39.2912 6.59049 38.8277 6.59049 38.256C6.59049 33.9804 7.42798 29.8329 9.07965 25.9287C9.30228 25.4022 9.05604 24.7948 8.5293 24.572Z" fill="white"/>
<path d="M26.4887 7.71759C26.2661 7.19109 25.6583 6.94461 25.1317 7.16748C21.1129 8.86686 17.5038 11.2995 14.4044 14.3978C14.0001 14.8021 14.0001 15.4576 14.4044 15.8618C14.6067 16.064 14.8716 16.165 15.1366 16.165C15.4016 16.165 15.6666 16.0639 15.8688 15.8618C18.7786 12.9529 22.1664 10.6692 25.9383 9.07432C26.4651 8.85154 26.7114 8.24419 26.4887 7.71759Z" fill="white"/>
<path d="M32.4735 41.3022C32.2012 41.3022 31.9341 41.4129 31.7416 41.6055C31.549 41.799 31.4381 42.0651 31.4381 42.3373C31.4381 42.6106 31.5489 42.8766 31.7416 43.0702C31.9341 43.2628 32.2012 43.3735 32.4735 43.3735C32.7459 43.3735 33.013 43.2628 33.2056 43.0702C33.3992 42.8766 33.509 42.6106 33.509 42.3373C33.509 42.0651 33.3992 41.799 33.2056 41.6055C33.013 41.413 32.7459 41.3022 32.4735 41.3022Z" fill="white"/>
<path d="M28.2219 42.3105C27.9496 42.3105 27.6824 42.4203 27.4899 42.6138C27.2974 42.8064 27.1865 43.0734 27.1865 43.3457C27.1865 43.6179 27.2973 43.885 27.4899 44.0775C27.6824 44.2701 27.9496 44.3808 28.2219 44.3808C28.4942 44.3808 28.7614 44.2701 28.954 44.0775C29.1464 43.884 29.2573 43.6179 29.2573 43.3457C29.2573 43.0734 29.1465 42.8064 28.954 42.6138C28.7614 42.4203 28.4942 42.3105 28.2219 42.3105Z" fill="white"/>
<path d="M52.9436 50.2175L49.4748 34.82C49.4738 34.8154 49.4727 34.8109 49.4717 34.8063L47.1044 24.2981C47.1037 24.2949 47.1029 24.2918 47.1022 24.2886L43.4769 8.19679C43.8258 7.45518 44.0219 6.62816 44.0219 5.7558C44.0219 2.58209 41.4392 0 38.2646 0C33.1015 0 28.0897 1.01222 23.3686 3.00859C18.8115 4.93551 14.72 7.69296 11.2075 11.2043C7.69498 14.7159 4.9368 18.8064 3.00938 23.3623C1.01248 28.0823 0 33.0928 0 38.2546C0 41.4284 2.58267 44.0105 5.75741 44.0105C6.63684 44.0105 7.47039 43.8116 8.21665 43.4577L15.525 45.1066V49.629C15.525 51.4878 17.0376 53 18.8969 53C20.7562 53 22.2688 51.4878 22.2688 49.629V48.3159C22.2688 48.0057 22.5212 47.7532 22.8317 47.7532C23.4611 47.7532 24.0572 47.531 24.5253 47.1374L50.2234 52.9357C50.989 53.1083 51.7776 52.8804 52.3326 52.3258C52.8877 51.771 53.116 50.9829 52.9436 50.2175ZM47.3094 34.6315C46.4606 35.2174 45.4508 35.5359 44.4083 35.5359C41.5911 35.5359 39.2992 33.2446 39.2992 30.4283C39.2992 27.6119 41.5911 25.3205 44.4083 25.3205C44.6838 25.3205 44.9572 25.3431 45.2266 25.3863L47.3094 34.6315ZM10.2861 41.8021C10.9848 40.9126 11.4273 39.814 11.5021 38.6166H12.8873C14.3417 38.6166 15.5249 39.7995 15.5249 41.2534V42.9842L10.2861 41.8021ZM25.4654 44.149C25.4654 41.3325 27.7573 39.0412 30.5745 39.0412C33.3916 39.0412 35.6835 41.3325 35.6835 44.149C35.6835 45.2993 35.3027 46.3947 34.6034 47.2888L25.5861 45.2542C25.5065 44.8933 25.4654 44.5234 25.4654 44.149ZM50.8685 50.8614C50.8322 50.8976 50.7701 50.9367 50.6794 50.916L36.7719 47.7781C37.4125 46.6881 37.7544 45.4429 37.7544 44.1489C37.7544 40.1908 34.5336 36.9707 30.5745 36.9707C26.6154 36.9707 23.3944 40.1908 23.3944 44.1489C23.3944 44.5117 23.4227 44.8715 23.4762 45.2267C23.4078 45.2883 23.3466 45.3589 23.2958 45.4386C23.19 45.5917 23.0175 45.6827 22.8317 45.6827C21.3794 45.6827 20.1978 46.8639 20.1978 48.3158V49.6289C20.1978 50.3461 19.6142 50.9295 18.8969 50.9295C18.1796 50.9295 17.5959 50.3461 17.5959 49.6289V41.2534C17.5959 38.6579 15.4838 36.5462 12.8874 36.5462H11.5695C11.8823 31.5863 13.5555 26.8592 16.4574 22.7833C16.789 22.3175 16.68 21.6712 16.2142 21.3396C15.7483 21.0081 15.1019 21.117 14.7701 21.5827C11.2858 26.4768 9.44389 32.2418 9.44389 38.2544C9.44389 40.2866 7.79014 41.94 5.75741 41.94C3.72468 41.94 2.07094 40.2866 2.07094 38.2544C2.07094 33.3713 3.02843 28.6322 4.91671 24.1688C6.73966 19.8597 9.34893 15.9905 12.6719 12.6684C15.9948 9.34638 19.865 6.73789 24.1753 4.91542C28.6397 3.02764 33.3802 2.07039 38.2646 2.07039C40.2973 2.07039 41.9511 3.72371 41.9511 5.7559C41.9511 7.7881 40.2973 9.44141 38.2646 9.44141C32.2466 9.44141 26.477 11.2849 21.5799 14.7725C21.1141 15.1042 21.0054 15.7506 21.3373 16.2163C21.669 16.6819 22.3156 16.7905 22.7813 16.4588C27.3257 13.2225 32.6797 11.5119 38.2645 11.5118C39.6068 11.5118 40.8423 11.0489 41.8225 10.2761L44.7474 23.2591C44.6346 23.2538 44.5216 23.2502 44.4083 23.2502C40.4493 23.2502 37.2283 26.4703 37.2283 30.4284C37.2283 34.3863 40.4492 37.6064 44.4083 37.6064C45.5972 37.6064 46.7565 37.3118 47.789 36.7607L50.9232 50.6725C50.9437 50.763 50.9048 50.8253 50.8685 50.8614Z" fill="white"/>
<path d="M19.6596 18.6242C19.6596 18.3519 19.5489 18.0849 19.3562 17.8923C19.1636 17.6998 18.8965 17.589 18.6241 17.589C18.3518 17.589 18.0847 17.6998 17.8922 17.8923C17.6996 18.0849 17.5887 18.3519 17.5887 18.6242C17.5887 18.8964 17.6995 19.1635 17.8922 19.356C18.0847 19.5486 18.3518 19.6593 18.6241 19.6593C18.8965 19.6593 19.1626 19.5486 19.3562 19.356C19.5489 19.1635 19.6596 18.8964 19.6596 18.6242Z" fill="white"/>
</svg>
