<svg width="57" height="57" viewBox="0 0 57 57" fill="none" xmlns="http://www.w3.org/2000/svg">
<path d="M41.3392 23.2465V23.0078C44.7664 22.1017 46.6474 19.5154 46.6474 15.4933C46.6462 4.84856 34.561 0 23.3296 0C12.0947 0 0 4.84856 0 15.4933C0 19.5166 1.881 22.1029 5.30575 23.0078V27.4348C5.30575 30.2326 7.19744 32.5731 9.75888 33.3046C9.101 34.8614 8.75781 36.5382 8.75781 38.3301C8.75781 41.3927 9.78263 45.0134 14.2702 46.1047V50.7253C14.2702 54.1844 17.0763 56.9988 20.5271 56.9988H45.2402C48.6887 56.9988 51.4959 54.1844 51.4959 50.7253V46.1035C55.9764 45.011 57 41.3927 57 38.3313C57 30.9308 51.1884 25.3852 41.3392 23.2465ZM7.79831 18.6283C5.4055 18.5096 4.75 17.8363 4.75 15.4933C4.75 6.99556 16.9029 4.75 23.3296 4.75C29.7516 4.75 41.8962 6.99556 41.8962 15.4933C41.8962 17.8363 41.2407 18.5096 38.8384 18.6295C36.9538 18.7293 34.4517 18.3493 31.8143 17.9467C29.0296 17.5228 26.1511 17.0822 23.3296 17.0822C20.501 17.0822 17.6166 17.5216 14.8295 17.9467C12.1921 18.3481 9.6995 18.7257 7.79831 18.6283ZM35.9468 27.2341V40.2218C34.9244 40.1304 33.9019 40.0627 32.8866 40.0627C31.8737 40.0627 30.8524 40.1304 29.8312 40.2206V27.2246C30.8334 27.1391 31.8535 27.0904 32.8866 27.0904C33.9221 27.0904 34.9422 27.1486 35.9468 27.2341ZM12.9034 28.8147H11.4214C10.6673 28.8147 10.0558 28.196 10.0558 27.436V23.3368C10.2125 23.3261 10.3835 23.2988 10.5426 23.2857C11.1494 23.2346 11.7681 23.1705 12.3999 23.0898C12.6291 23.0601 12.8594 23.0339 13.091 23.0019C13.8949 22.8914 14.7107 22.7703 15.5456 22.6433C18.1592 22.2443 20.862 21.8322 23.3308 21.8322C23.9056 21.8322 24.4969 21.8583 25.0931 21.8987C25.2961 21.9118 25.5028 21.9331 25.707 21.9498C26.1096 21.983 26.5121 22.0198 26.9194 22.0649C27.1605 22.0923 27.4028 22.1219 27.645 22.1516C28.0309 22.2003 28.4169 22.2502 28.804 22.3036C29.0641 22.3404 29.3229 22.3761 29.5818 22.4141C29.6649 22.4259 29.7481 22.439 29.8312 22.4509C28.88 22.5209 27.9478 22.6326 27.0299 22.7668C27.0037 22.7715 26.9776 22.7751 26.9515 22.7798C21.3833 23.6099 16.5181 25.5799 13.3511 28.405C13.1943 28.5439 13.0447 28.6793 12.9034 28.8147ZM16.7687 41.6753C16.7639 41.6753 16.7604 41.6765 16.7556 41.6753C14.2381 41.5542 13.5078 40.8025 13.5078 38.3313C13.5078 36.195 14.212 34.3817 15.6607 32.7869C15.6631 32.7845 15.6643 32.7809 15.6667 32.7786C15.6691 32.775 15.6726 32.7738 15.6762 32.7703C15.9042 32.5126 16.1666 32.2561 16.5051 31.9556C18.5048 30.172 21.5377 28.7945 25.0812 27.9668V40.8144C24.7499 40.8642 24.415 40.9129 24.0861 40.964C23.6016 41.0388 23.1301 41.1077 22.6575 41.1777C21.793 41.306 20.9439 41.4259 20.1424 41.5162C19.3004 41.61 18.525 41.6551 17.7864 41.6706C17.4408 41.6777 17.0846 41.6919 16.7687 41.6753ZM46.7436 50.7264C46.7436 51.5672 46.0691 52.25 45.2378 52.25H20.5259C19.6959 52.25 19.019 51.5672 19.019 50.7264V46.3861C19.1686 46.3766 19.3325 46.3505 19.4833 46.3374C20.1519 46.284 20.8347 46.2139 21.5353 46.1249C21.7526 46.0976 21.9699 46.0714 22.1896 46.0417C22.9912 45.9313 23.8058 45.8126 24.6382 45.6843C24.6917 45.676 24.7416 45.6701 24.7938 45.6618C27.5108 45.2473 30.3181 44.8198 32.8878 44.8198C35.4481 44.8198 38.2529 45.2473 40.964 45.6606C41.0649 45.676 41.1587 45.6879 41.2597 45.7033C42.028 45.8209 42.7809 45.9313 43.5231 46.0334C43.7166 46.0596 43.9137 46.0857 44.1049 46.1106C44.9967 46.227 45.8708 46.3244 46.7103 46.3814C46.721 46.3826 46.7329 46.3838 46.7436 46.3849V50.7264ZM49.0069 41.6753C49.0022 41.6753 48.9974 41.6741 48.9939 41.6741C48.0023 41.7264 46.8599 41.6539 45.6226 41.5162C44.3852 41.3772 43.0528 41.1742 41.6836 40.964C41.3571 40.9141 41.0269 40.8654 40.698 40.8156V27.9775C45.2924 29.0415 52.25 31.7383 52.25 38.3313C52.25 40.8013 51.5244 41.5518 49.0069 41.6753Z" fill="white"/>
<path d="M28.2542 7.98774C23.3831 6.13643 18.5963 7.91174 18.3944 7.98774C17.1736 8.45205 16.5621 9.81412 17.0204 11.0372C17.4788 12.2616 18.8421 12.8814 20.0711 12.4326C20.1032 12.4195 23.4128 11.2284 26.5656 12.429C26.8434 12.5347 27.1296 12.5846 27.4099 12.5846C28.367 12.5846 29.2683 12.0015 29.6293 11.0527C30.096 9.82599 29.4797 8.45443 28.2542 7.98774Z" fill="white"/>
</svg>
