<svg width="62" height="49" viewBox="0 0 62 49" fill="none" xmlns="http://www.w3.org/2000/svg">
<path d="M60.1348 15.661H55.6279C58.184 12.1626 57.8884 7.20558 54.7408 4.04475C54.3911 3.69357 53.9168 3.4962 53.4222 3.4962C52.9277 3.4962 52.4532 3.69344 52.1037 4.04475L47.2833 8.8854C47.4453 7.28304 47.3417 6.1041 47.3309 5.99271C47.2459 5.09917 46.5415 4.39181 45.6518 4.30644C45.3898 4.28139 39.1935 3.73333 35.5232 7.41911C34.9685 7.97618 34.5105 8.59149 34.1321 9.23513C32.7295 7.6245 30.6705 6.60425 28.3775 6.60425C28.221 6.60425 28.0654 6.60887 27.9107 6.61824C27.3948 2.88442 24.195 0 20.337 0C16.479 0 13.2792 2.8843 12.7634 6.61824C12.6085 6.60887 12.4529 6.60425 12.2965 6.60425C8.08043 6.60425 4.65022 10.0488 4.65022 14.2827V15.6611H1.86496C0.835059 15.661 0 16.4994 0 17.5338C0 22.4011 1.08814 27.0632 3.23404 31.3906C5.14295 35.2399 7.88051 38.707 11.1826 41.4694V47.1272C11.1826 48.1614 12.0175 49 13.0476 49H48.9522C49.9821 49 50.8172 48.1614 50.8172 47.1272V41.4694C54.1193 38.7072 56.8568 35.2399 58.7658 31.3906C60.9119 27.0632 62 22.4011 62 17.5338C61.9998 16.4994 61.1649 15.661 60.1348 15.661ZM53.1767 8.26401C54.0162 10.1728 53.6586 12.4885 52.1034 14.0504C50.5481 15.6122 48.2419 15.9711 46.3412 15.1282L53.1767 8.26401ZM38.1605 10.0675C39.6582 8.56364 42.0213 8.14143 43.6137 8.0388C43.5115 9.63922 43.0909 12.0114 41.5936 13.5151C40.097 15.018 37.7363 15.4406 36.1438 15.5436C36.2484 13.9414 36.6707 11.5636 38.1605 10.0675ZM8.37978 14.2826C8.37978 12.1141 10.1367 10.3497 12.2962 10.3497C12.8651 10.3497 13.4146 10.4705 13.9297 10.7085C14.577 11.0076 15.3373 10.9101 15.8889 10.4576C16.4407 10.0051 16.6876 9.27647 16.5251 8.57993C16.4556 8.28189 16.4202 7.97861 16.4202 7.67837C16.4202 5.50983 18.1772 3.74549 20.3366 3.74549C22.4961 3.74549 24.253 5.50983 24.253 7.67837C24.253 7.97849 24.2177 8.28176 24.1482 8.57969C23.9857 9.27623 24.2325 10.0049 24.7843 10.4575C25.3361 10.91 26.0963 11.0072 26.7436 10.7085C27.2587 10.4705 27.8082 10.3497 28.3771 10.3497C30.5366 10.3497 32.2935 12.1141 32.2935 14.2826V15.661H8.37978V14.2826ZM47.0872 45.2544H14.9124V42.4486H47.0871V45.2544H47.0872ZM48.297 38.7032H13.7026C7.83873 33.8714 4.29675 26.9479 3.79228 19.4064H6.50525C6.50852 19.4064 6.51155 19.4068 6.51482 19.4068H34.1585C34.1617 19.4068 34.1648 19.4064 34.168 19.4064H58.2072C57.7029 26.9479 54.1609 33.8715 48.297 38.7032Z" fill="white"/>
</svg>
