<svg width="680" height="1000" viewBox="0 0 680 1000" fill="none" xmlns="http://www.w3.org/2000/svg">
<path d="M72.35 12.6701C66.46 16.0101 57.02 33.5001 57.02 41.3601C57.02 46.4701 56.63 46.6601 44.25 47.4501C30.3 48.2401 23.62 51.7701 16.35 62.5801C10.85 70.6401 8.88004 84.0001 11.63 92.8401C13.79 99.3201 13.59 99.9101 6.92003 106.59C0.830032 112.68 0.0400391 114.65 0.0400391 123.68C0.0400391 133.9 0.240034 134.09 15.76 150.01L31.48 166.12V394.25V622.37L23.62 630.23L15.56 638.09L16.15 764.63L16.74 890.97L21.85 904.14C29.71 924.18 38.94 938.53 53.09 952.87C67.43 967.02 81.78 976.25 101.82 984.11L114.99 989.22L264.71 989.81C431.72 990.4 427.99 990.6 455.89 976.84C466.89 971.53 474.75 965.44 487.33 952.87C505.41 934.99 514.05 921.04 521.52 898.25L525.65 885.28L556.11 873.1C572.81 866.42 606.21 853.25 630.38 843.82C668.3 829.08 674.59 825.94 676.95 821.03C685.2 805.31 678.72 799.81 629.79 780.95C608.18 772.7 587.54 764.45 583.81 763.07L576.93 760.32L601.69 735.17C616.43 720.24 627.03 708.05 627.82 704.71C629.59 698.23 625.86 688.2 620.75 685.65C618 684.08 534.69 669.93 528.6 669.93C527.42 669.93 526.63 664.04 526.63 656.96C526.63 642.03 522.9 632.4 514.65 626.5L508.95 622.57V475.98V329.4L534.49 304.64L560.03 279.88V270.64C560.03 262.58 559.05 260.03 552.96 253.35C546.47 246.28 545.89 244.9 548.05 240.38C552.96 229.38 549.03 212.28 539.01 201.67C533.31 195.78 523.68 192.43 512.68 192.43C505.8 192.43 505.41 192.23 504.23 183.98C502.46 172.39 495.39 160.6 487.53 156.67C483.99 154.9 478.1 149.2 474.56 143.9C466.11 131.32 440.37 106.76 424.65 96.3501C407.56 84.5601 379.85 71.7901 358.63 65.7001C327.78 56.8601 309.9 54.5001 264.32 53.5201L221.29 52.5401L214.22 46.8401C206.56 40.5501 197.12 37.2101 187.5 37.2101C182.59 37.2101 181.02 36.0301 178.27 30.3301C173.95 21.4901 162.55 15.5901 149.39 15.5901C137.8 15.5901 133.47 17.5501 124.24 26.2001L117.76 32.2901L113.63 26.7901C103 12.2701 84.73 5.9901 72.35 12.6701ZM151.34 69.4501V87.7201L164.7 84.1801C171.97 82.0201 180.22 78.6801 183.17 76.5201C186.12 74.3601 188.87 72.5901 189.26 72.5901C189.85 72.5901 191.22 76.5201 192.4 81.2401C195.74 94.6001 210.48 106 224.43 106C229.93 106 230.32 106.39 228.75 111.31C227.77 114.45 227.18 121.53 227.38 127.22C227.77 142.94 235.24 153.75 251.35 162.39C251.74 162.59 248.4 166.91 244.28 172.21C239.96 177.32 230.53 189.3 223.26 198.74L210.09 216.03L198.89 206.79C181.6 192.64 157.23 177.51 135.23 166.9C113.81 156.68 73.34 142.34 59.58 140.18C54.08 139.39 49.56 136.84 45.04 132.32L38.56 125.64L43.28 117.39C48 108.74 49.37 95.5801 46.42 85.7601C44.85 80.2601 44.85 80.2601 51.53 81.4401C64.1 83.8001 79.43 74.7601 86.7 60.6101L90.24 53.3401L99.48 58.0601C111.27 63.9501 125.81 64.3501 136.62 58.8501C140.94 56.6901 145.07 53.5401 146.05 51.9701C149.37 45.6801 151.34 51.7701 151.34 69.4501ZM277.09 89.3001C275.71 90.8701 273.95 92.2501 272.96 92.2501C271.97 92.2501 271.19 90.8701 271.19 89.3001C271.19 87.5301 272.96 86.3501 275.32 86.3501C278.86 86.3501 279.05 86.7401 277.09 89.3001ZM341.14 95.1901C364.52 101.08 385.94 110.12 403.43 121.52C418.17 131.15 440.57 152.57 446.46 162.59C449.41 167.5 449.41 168.68 447.05 172.22C444.3 176.15 444.1 176.15 435.85 167.9C426.03 158.27 416.01 155.52 403.04 159.06C394.4 161.42 382.21 170.85 380.25 176.55C379.46 179.1 377.7 179.69 373.18 179.1L367.09 178.12L373.97 171.05C383.79 160.83 389.1 149.24 389.1 137.65C389.1 129.4 388.31 127.24 383.99 123.9C372.2 114.66 355.7 123.11 355.7 138.64C355.7 147.48 350 153.18 340.77 153.18C331.54 153.18 322.3 162.02 322.3 170.86C322.3 179.7 329.77 186.58 339.79 186.58H347.65L342.93 193.65C340.18 197.58 338.02 201.71 338.02 202.69C338.02 203.87 333.89 200.53 328.79 195.62C319.36 186.38 295.39 172.83 288.51 172.83C285.17 172.83 284.78 171.85 285.76 167.72C287.53 160.65 282.22 143.16 276.72 138.05C274.17 135.89 269.45 132.55 265.91 130.78L259.62 127.64L264.92 117.23L270.23 107.01L272.98 114.87C278.29 130.2 287.91 140.81 303.63 148.47C322.89 157.7 338.01 152.4 338.01 135.9C338.01 126.27 333.49 121.75 320.92 119.59C309.92 117.63 304.61 112.32 304.61 103.28C304.61 99.9402 303.23 95.0301 301.47 92.4701L298.13 87.9501L310.71 89.3301C317.56 90.0801 331.32 92.8301 341.14 95.1901ZM97.11 187.74C188.08 222.52 241.72 286.77 251.55 373.22C252.53 382.45 253.51 394.24 253.51 399.55C253.51 405.05 256.06 416.64 259.6 426.86C262.94 436.49 265.3 446.31 264.71 448.67C257.05 480.11 255.28 493.47 253.51 531.39C252.53 553.99 250.37 580.51 248.6 590.34C244.87 612.74 234.26 646.34 230.52 647.71C221.68 651.05 140.53 639.46 94.35 628.06L67.82 621.58L67.23 399.94L66.84 178.3L73.13 179.87C76.67 180.47 87.48 184.2 97.11 187.74ZM432.71 206.21C442.93 208.96 454.91 207.39 463.75 202.08C467.48 199.72 470.82 198.74 471.22 199.92C471.42 200.9 474.36 205.62 477.31 210.53C483.79 220.75 496.17 227.82 507.57 227.82C514.65 227.82 514.84 228.02 513.46 233.13C510.91 242.36 512.08 254.74 516.61 263.39L520.93 271.64L516.61 276.16C510.32 283.04 508.95 282.05 508.95 271.05C508.95 259.65 512.88 259.85 475.55 269.48C439.2 278.71 401.87 294.43 372.59 312.9C365.91 317.22 362.57 318.21 361.98 316.63C361.59 315.25 358.05 309.95 353.92 304.84L346.65 295.6L351.17 283.81C354.31 275.36 355.49 267.5 355.49 255.71C355.69 246.87 356.47 239.6 357.65 239.6C360.01 239.6 369.44 223.49 369.44 219.36C369.44 215.04 370.23 215.04 379.85 220.74C384.37 223.29 391.84 226.44 396.55 227.81C401.27 228.99 406.37 230.56 408.14 231.15C410.69 232.13 411.09 230.17 410.69 218.77C410.49 211.3 410.3 202.27 410.49 198.53L410.69 192.05L417.57 198.14C421.31 201.3 428.19 205.03 432.71 206.21ZM288.09 207.19C302.04 211.32 311.47 219.77 316.58 233.32C321.3 245.9 322.28 265.55 318.54 272.81C316.38 276.54 315.2 276.94 309.89 275.56C303.21 273.79 274.13 273.6 264.11 274.97C258.41 275.95 257.43 274.97 246.23 258.47L234.44 240.98L249.18 222.51C262.93 205.42 264.31 204.24 271.19 204.24C275.12 204.24 282.79 205.62 288.09 207.19ZM309.9 312.7C318.74 316.83 334.07 332.54 334.07 337.26C334.07 339.03 327.78 347.08 320.12 355.34C312.26 363.59 302.44 375.38 297.92 381.67C288.69 394.84 288.1 394.44 286.13 369.88C285.15 356.52 280.43 334.32 273.95 312.9C272.97 309.36 273.75 308.58 278.47 307.79C287.5 306.22 301.06 308.38 309.9 312.7ZM475.54 463.61V620.6L465.32 623.74C416.59 637.69 359.81 645.94 292.02 649.28C270.41 650.26 268.83 650.07 269.82 646.92C270.21 644.96 272.96 635.72 275.71 626.29C282.78 602.71 286.52 574.42 287.89 536.3C290.25 475 299.48 441.4 324.83 403.67C342.71 376.95 383.19 343.54 417.97 326.84C434.87 318.59 466.89 306.6 472.2 306.41C475.35 306.42 475.54 315.26 475.54 463.61ZM77.85 663.04C199.67 690.35 340.75 690.35 462.77 663.04C474.75 660.29 486.15 657.54 488.31 656.95C492.24 655.97 492.24 656.75 491.65 769.54C491.26 876.23 491.06 883.9 487.33 896.08C482.22 913.57 469.65 930.27 453.93 940.68C430.35 956.4 439.39 955.61 276.3 956.4C175.7 956.79 127.76 956.2 120.49 954.83C85.91 947.56 58.4 920.45 51.33 886.45C49.95 879.57 49.17 839.29 49.17 766C49.17 662.06 49.37 655.97 52.71 656.95C54.47 657.54 65.86 660.29 77.85 663.04ZM556.1 708.43C566.32 710 574.96 711.77 575.36 712.16C575.75 712.36 568.68 720.41 559.64 729.65L543.33 746.74L535.08 743.4L526.63 740.06V721.79V703.32L532.13 704.3C535.08 704.89 545.88 706.66 556.1 708.43ZM569.27 793.9C591.67 802.55 611.91 810.41 613.87 811.19C617.41 812.56 617.01 812.96 611.91 814.73C608.77 815.91 588.33 823.97 566.52 832.61L526.63 848.33V813.16C526.63 793.9 527.02 777.99 527.42 777.99C527.81 777.99 546.67 785.06 569.27 793.9Z" fill="white"/>
<path d="M448.03 704.89C444.49 707.64 442.92 712.16 440.96 725.13C433.49 772.29 394.59 810.6 326.8 837.91C281.22 856.18 227.57 866.99 163.91 870.33C127.56 872.29 126.58 872.49 122.45 877.4C111.25 889.98 121.08 905.7 140.13 905.7C178.05 905.5 233.85 898.23 274.13 888.02C372.18 863.46 443.7 815.32 466.88 758.34C472.38 744.78 476.51 721.4 474.74 714.33C471.81 702.54 457.27 697.43 448.03 704.89Z" fill="white"/>
</svg>
