<svg width="56" height="57" viewBox="0 0 56 57" fill="none" xmlns="http://www.w3.org/2000/svg">
<path d="M28.0007 13.1765C27.5465 13.1765 27.0945 12.9898 26.769 12.6236C24.9626 10.5914 24.9626 7.52631 26.769 5.49406C27.4665 4.70941 27.4665 3.52594 26.769 2.74129C26.1648 2.0615 26.2259 1.02034 26.9058 0.41609C27.5857 -0.188269 28.6268 -0.127108 29.2311 0.552905C31.0375 2.58515 31.0375 5.6502 29.2311 7.68245C28.5337 8.4671 28.5337 9.65056 29.2311 10.4352C29.8354 11.115 29.7742 12.1562 29.0943 12.7604C28.7805 13.0393 28.3898 13.1765 28.0007 13.1765Z" fill="white"/>
<path d="M20.3144 13.1765C19.8603 13.1765 19.4082 12.9898 19.0828 12.6236C17.2764 10.5914 17.2764 7.52631 19.0828 5.49406C19.7802 4.70941 19.7802 3.52594 19.0828 2.74129C18.4785 2.0615 18.5397 1.02034 19.2196 0.41609C19.8995 -0.188269 20.9405 -0.127108 21.5449 0.552905C23.3513 2.58515 23.3513 5.6502 21.5449 7.68245C20.8474 8.4671 20.8474 9.65056 21.5449 10.4352C22.1491 11.115 22.088 12.1562 21.4081 12.7604C21.0942 13.0393 20.7036 13.1765 20.3144 13.1765Z" fill="white"/>
<path d="M35.6869 13.1765C35.2327 13.1765 34.7807 12.9898 34.4552 12.6236C32.6489 10.5914 32.6489 7.52631 34.4552 5.49406C35.1527 4.70941 35.1527 3.52594 34.4552 2.74129C33.851 2.0615 33.9121 1.02034 34.592 0.41609C35.272 -0.188269 36.313 -0.127108 36.9174 0.552905C38.7237 2.58515 38.7237 5.6502 36.9174 7.68245C36.2199 8.4671 36.2199 9.65056 36.9174 10.4352C37.5216 11.115 37.4604 12.1562 36.7805 12.7604C36.4667 13.0393 36.076 13.1765 35.6869 13.1765Z" fill="white"/>
<path d="M51.1854 15.3726H52.7058C54.5251 15.3726 55.9999 13.8978 55.9999 12.0785C55.9999 10.2593 54.5251 8.78439 52.7058 8.78439H51.3586C48.2908 8.78439 45.629 10.902 44.9391 13.8911L43.5836 19.7647H50.1719L51.1854 15.3726Z" fill="white"/>
<path d="M0.0498472 25.1705C0.267807 26.6966 0.610394 28.1929 1.06773 29.6471H54.9324C55.3897 28.193 55.7322 26.6968 55.9503 25.1707L55.9834 24.9391C56.0509 24.4664 55.9102 23.9876 55.5972 23.6269C55.2843 23.2662 54.8304 23.0588 54.3528 23.0588H1.64716C1.16962 23.0588 0.715696 23.2661 0.402756 23.6268C0.0898156 23.9875 -0.0509524 24.4664 0.0165767 24.9389L0.0498472 25.1705Z" fill="white"/>
<path d="M16.6156 50.5763L15.4572 54.0516C15.2898 54.5538 15.374 55.106 15.6836 55.5355C15.9931 55.965 16.4902 56.2194 17.0197 56.2194H38.9804C39.5098 56.2194 40.007 55.965 40.3164 55.5355C40.626 55.106 40.7102 54.5539 40.5429 54.0516L39.3844 50.5763C35.7816 51.9715 31.9248 52.7057 28 52.7057C24.0752 52.7057 20.2186 51.9715 16.6156 50.5763Z" fill="white"/>
<path d="M2.3343 32.9412C4.0009 36.577 6.43327 39.8466 9.50096 42.5071C14.6347 46.9597 21.2045 49.4117 28 49.4117C34.7955 49.4117 41.3653 46.9597 46.499 42.5071C49.5667 39.8466 51.9992 36.577 53.6657 32.9412H2.3343Z" fill="white"/>
</svg>
