<svg width="104" height="105" viewBox="0 0 104 105" fill="none" xmlns="http://www.w3.org/2000/svg">
<path d="M58.33 52V52.13C58.3402 52.0873 58.3402 52.0427 58.33 52ZM58.33 52V52.13C58.3402 52.0873 58.3402 52.0427 58.33 52Z" fill="#FFFCFC"/>
<path d="M101.64 52C101.841 50.6762 101.941 49.339 101.94 48C101.918 42.6806 100.325 37.4863 97.3607 33.069C94.3968 28.6518 90.1941 25.2086 85.2802 23.1714C80.3663 21.1343 74.9601 20.594 69.7402 21.6185C64.5203 22.643 59.7194 25.1866 55.94 28.93C52.7764 27.6778 49.4023 27.0431 46 27.06C43.9058 27.0579 41.8184 27.2996 39.78 27.78L29.95 2.22997V2.13997C29.7271 1.66922 29.3294 1.30398 28.8415 1.12191C28.3535 0.939842 27.8138 0.955309 27.337 1.16502C26.8603 1.37474 26.4841 1.76216 26.2886 2.24489C26.0931 2.72763 26.0936 3.26759 26.29 3.74997L37.18 28.53C37.1474 28.4181 37.0892 28.3154 37.01 28.23L15.57 1.81997L15.52 1.74997C15.346 1.55299 15.1349 1.3922 14.8988 1.2768C14.6626 1.1614 14.4061 1.09364 14.1437 1.07739C13.8814 1.06114 13.6185 1.09672 13.3699 1.18209C13.1213 1.26747 12.892 1.40097 12.695 1.57497C12.2972 1.92638 12.0552 2.42144 12.0224 2.95123C12.0062 3.21355 12.0418 3.47651 12.1271 3.72508C12.2125 3.97366 12.346 4.20299 12.52 4.39997L34.73 29.51C33.7545 29.9496 32.8062 30.4472 31.89 31C25.7907 31.0011 19.8743 33.0826 15.118 36.9008C10.3617 40.7189 7.04999 46.0453 5.73 52H2H0V54C0.00576599 62.5974 2.85226 70.9519 8.09681 77.7644C13.3414 84.5769 20.69 89.4655 29 91.67V97C29 101.64 31 105 33.86 105H70.14C72.96 105 75 101.64 75 97V91.67C83.31 89.4655 90.6586 84.5769 95.9032 77.7644C101.148 70.9519 103.994 62.5974 104 54V52H101.64ZM75 25.07C81.0775 25.0858 86.9016 27.5064 91.2 31.8029C95.4984 36.0994 97.9215 41.9225 97.94 48C97.9448 49.3412 97.8276 50.68 97.59 52H94.29C95.1092 48.0153 94.6767 43.8749 93.0517 40.1456C91.4267 36.4163 88.6888 33.2804 85.2126 31.1673C81.7365 29.0543 77.6922 28.0674 73.6335 28.3417C69.5748 28.6161 65.7001 30.1383 62.54 32.7C61.6557 32.0177 60.7306 31.3899 59.77 30.82C63.9759 27.1107 69.3921 25.0658 75 25.07ZM75 35.54C72.3654 35.5417 69.7992 36.3784 67.67 37.93C67.0311 37.0532 66.3328 36.2212 65.58 35.44C68.2914 33.39 71.6009 32.2868 75 32.3C77.4013 32.3047 79.7697 32.8591 81.9237 33.9208C84.0776 34.9824 85.9598 36.5231 87.4262 38.4248C88.8925 40.3265 89.9039 42.5387 90.383 44.8918C90.8621 47.2448 90.7961 49.6764 90.19 52H86.8C87.2414 50.7127 87.4644 49.3608 87.46 48C87.4521 44.6978 86.1368 41.5332 83.8018 39.1982C81.4668 36.8632 78.3022 35.5479 75 35.54ZM83.46 48C83.4654 49.3958 83.1217 50.7709 82.46 52H72.9C72.6273 48.2587 71.5712 44.6166 69.8 41.31C71.2847 40.1503 73.1161 39.5234 75 39.53C77.2422 39.5405 79.3894 40.4366 80.974 42.023C82.5586 43.6095 83.4521 45.7577 83.46 48ZM41.05 31.59C42.6917 31.2266 44.3685 31.0455 46.05 31.05C49.3587 31.0387 52.6294 31.7556 55.63 33.15C57.6983 34.0857 59.6106 35.3336 61.3 36.85C65.6865 40.7342 68.4053 46.161 68.89 52H65.64C65.1377 47.1412 62.8517 42.6411 59.224 39.37C55.5964 36.0988 50.8847 34.2888 46 34.29C45.61 34.29 45.24 34.29 44.9 34.29C43.484 33.5208 42.0013 32.8816 40.47 32.38C40.08 32.25 39.69 32.13 39.29 32.02C39.87 31.87 40.46 31.72 41.05 31.59ZM58.35 52.13V52C58.1371 51.0303 57.8633 50.0751 57.53 49.14L57.45 49C56.2889 46.3544 54.2451 44.1941 51.6679 42.8882C49.0907 41.5823 46.14 41.2118 43.32 41.84C42.1121 40.9897 40.8102 40.2817 39.44 39.73C41.0917 38.9745 42.8606 38.5077 44.67 38.35H44.73C45.12 38.35 45.54 38.35 46.02 38.35C49.8312 38.3504 53.5127 39.7346 56.3802 42.2452C59.2476 44.7559 61.106 48.2222 61.61 52H58.33C58.3469 52.0411 58.3537 52.0857 58.35 52.13ZM54.19 52H50.81C50.082 49.6779 48.9179 47.5159 47.38 45.63C48.7635 45.8658 50.0678 46.4378 51.1785 47.2956C52.2892 48.1535 53.1722 49.271 53.75 50.55C53.87 50.91 53.99 51.27 54.09 51.63C54.13 51.75 54.16 51.87 54.19 52ZM37.89 47C34.9941 45.4524 31.6047 45.1095 28.4575 46.0456C25.3103 46.9817 22.6593 49.1213 21.08 52H17.48C18.666 49.1243 20.6791 46.6655 23.264 44.9351C25.8489 43.2047 28.8894 42.2806 32 42.28C32.7422 42.2803 33.4836 42.327 34.22 42.42C34.2765 42.4256 34.3335 42.4256 34.39 42.42C37.0716 42.8341 39.6009 43.9335 41.733 45.6118C43.8651 47.2902 45.5278 49.4906 46.56 52H43C41.8188 49.8721 40.0431 48.1345 37.89 47ZM38 52H26C26.7869 51.2102 27.722 50.5836 28.7516 50.156C29.7812 49.7284 30.8851 49.5083 32 49.5083C33.1149 49.5083 34.2188 49.7284 35.2484 50.156C36.278 50.5836 37.2131 51.2102 38 52ZM20.31 38.2C23.8963 36.2177 27.9041 35.1206 32 35C33.1176 35.0105 34.2333 35.094 35.34 35.25C36.2986 35.3933 37.2471 35.597 38.18 35.86C36.6882 36.5205 35.2841 37.3636 34 38.37C33.36 38.31 32.7 38.28 32 38.28C27.8226 38.2837 23.7544 39.6146 20.3826 42.0806C17.0107 44.5466 14.5095 48.0202 13.24 52H9.84C11.3766 46.2007 15.139 41.2418 20.31 38.2ZM65 89H50V93H71V97C71.1271 98.4079 70.7747 99.8175 70 101H34C33.2253 99.8175 32.8729 98.4079 33 97V93H38V89C29.2381 88.7486 20.8894 85.2187 14.6048 79.1082C8.32025 72.9976 4.55728 64.7514 4.06 56H99.95C99.4393 64.923 95.5343 73.3125 89.0358 79.4485C82.5373 85.5844 73.9376 89.0018 65 89Z" fill="#FFFCFC"/>
<path d="M58.35 52.13V52C58.1372 51.0304 57.8633 50.0751 57.53 49.14C57.9214 50.054 58.1903 51.0156 58.33 52C58.3469 52.0411 58.3538 52.0857 58.35 52.13Z" fill="#FFFCFC"/>
<path d="M46 90.96C46 89.8554 45.1046 88.96 44 88.96C42.8954 88.96 42 89.8554 42 90.96C42 92.0645 42.8954 92.96 44 92.96C45.1046 92.96 46 92.0645 46 90.96Z" fill="#FFFCFC"/>
</svg>
